<?xml version="1.0" encoding="utf-8"?>
<!-- Generator: Adobe Illustrator 22.0.1, SVG Export Plug-In . SVG Version: 6.00 Build 0)  -->
<svg version="1.1" id="Layer_1" xmlns="http://www.w3.org/2000/svg" xmlns:xlink="http://www.w3.org/1999/xlink" x="0px" y="0px"
	 width="64px" height="64px" viewBox="0 0 64 64" style="enable-background:new 0 0 64 64;" xml:space="preserve">
<style type="text/css">
	.st0{fill:#FFFFFF;}
</style>
<g>
	<path class="st0" d="M27.9,40l12-8l-12-8V40z M51.9,0h-40c-6.6,0-12,5.4-12,12v40c0,6.6,5.4,12,12,12h40c6.6,0,12-5.4,12-12V12
		C63.9,5.4,58.6,0,51.9,0z M51.6,39.2c-0.2,2.7-2.2,6.1-5.1,6.6c-9.1,0.7-19.8,0.6-29.2,0c-2.9-0.4-4.9-3.9-5.1-6.6
		c-0.5-5.6-0.5-8.8,0-14.4c0.2-2.7,2.2-6.2,5.1-6.5c9.3-0.8,20.1-0.6,29.2,0c3.3,0.1,4.9,3.5,5.1,6.1C52.1,30,52.1,33.6,51.6,39.2z"
		/>
</g>
</svg>
