<?xml version="1.0" encoding="utf-8"?>
<!-- Generator: Adobe Illustrator 22.0.1, SVG Export Plug-In . SVG Version: 6.00 Build 0)  -->
<svg version="1.1" id="Layer_1" xmlns="http://www.w3.org/2000/svg" xmlns:xlink="http://www.w3.org/1999/xlink" x="0px" y="0px"
	 width="204px" height="64px" viewBox="0 0 204 64" style="enable-background:new 0 0 204 64;" xml:space="preserve">
<style type="text/css">
	.st0{fill:#FFFFFF;}
</style>
<title></title>
<desc>Created with Sketch.</desc>
<g id="Site_x2F_Footer" transform="translate(-1251.000000, -244.000000)">
</g>
<path class="st0" d="M130.5,3.5c2.3,2.3,3.5,5.2,3.5,8.5v40c0,3.3-1.2,6.2-3.5,8.5c-2.3,2.3-5.2,3.5-8.5,3.5H82
	c-3.3,0-6.2-1.2-8.5-3.5C71.2,58.2,70,55.3,70,52V12c0-3.3,1.2-6.2,3.5-8.5C75.8,1.2,78.7,0,82,0h40C125.3,0,128.2,1.2,130.5,3.5z
	 M121.9,20.8c-1.5,0.7-3,1.1-4.5,1.2c1.7-1,2.8-2.5,3.4-4.4c-1.5,0.9-3.2,1.5-5,1.9c-1.5-1.7-3.4-2.5-5.8-2.5c-2.2,0-4,0.8-5.6,2.3
	c-1.5,1.5-2.3,3.4-2.3,5.6c0,0.7,0.1,1.3,0.2,1.9c-6.7-0.3-12.1-3.1-16.2-8.2c-0.8,1.2-1.1,2.6-1.1,4c0,2.8,1.2,4.9,3.6,6.5
	c-1.3,0-2.5-0.3-3.6-1v0.1c0,1.9,0.6,3.6,1.8,5c1.2,1.4,2.7,2.3,4.6,2.8c-0.8,0.2-1.5,0.2-2.1,0.2c-0.5,0-1,0-1.5-0.1
	c0.5,1.6,1.4,2.9,2.8,3.9c1.3,1,2.9,1.5,4.6,1.6c-2.9,2.2-6.2,3.4-9.8,3.4c-0.7,0-1.3,0-1.9-0.1c3.7,2.3,7.7,3.5,12,3.5
	c6.8,0,12.3-2.3,16.4-6.9c4.1-4.6,6.1-9.8,6.1-15.4c0-0.3,0-0.7-0.1-1C119.5,23.7,120.8,22.3,121.9,20.8z"/>
<path class="st0" d="M200.5,3.5c2.3,2.3,3.5,5.2,3.5,8.5v40c0,3.3-1.2,6.2-3.5,8.5c-2.3,2.3-5.2,3.5-8.5,3.5h-40
	c-3.3,0-6.2-1.2-8.5-3.5c-2.3-2.3-3.5-5.2-3.5-8.5V12c0-3.3,1.2-6.2,3.5-8.5c2.3-2.3,5.2-3.5,8.5-3.5h40
	C195.3,0,198.2,1.2,200.5,3.5z M192,13.5c0-0.4-0.1-0.8-0.4-1.1c-0.3-0.3-0.6-0.4-1.1-0.4h-37c-0.4,0-0.8,0.1-1.1,0.4
	c-0.3,0.3-0.4,0.6-0.4,1.1v37c0,0.4,0.1,0.8,0.4,1.1c0.3,0.3,0.6,0.4,1.1,0.4h37c0.4,0,0.8-0.1,1.1-0.4c0.3-0.3,0.4-0.6,0.4-1.1
	V13.5z M183.6,30h4.4v18h-32V30h4.4c-0.2,0.8-0.2,1.5-0.2,2c0,3.2,1.2,6,3.5,8.4c2.3,2.3,5.1,3.5,8.4,3.5s6-1.2,8.4-3.5
	c2.3-2.3,3.5-5.1,3.5-8.4C183.9,31.5,183.8,30.8,183.6,30z M172,24c2.2,0,4,0.8,5.6,2.4c1.6,1.6,2.4,3.5,2.4,5.6
	c0,2.2-0.8,4-2.4,5.6c-1.6,1.6-3.5,2.4-5.6,2.4c-2.2,0-4-0.8-5.6-2.4c-1.6-1.6-2.4-3.5-2.4-5.6c0-2.2,0.8-4,2.4-5.6
	C168,24.8,169.8,24,172,24z M180,24h8v-8h-8V24z"/>
<g>
	<path class="st0" d="M60.5,3.5C62.8,5.8,64,8.7,64,12v40c0,3.3-1.2,6.2-3.5,8.5C58.2,62.8,55.3,64,52,64H12c-3.3,0-6.2-1.2-8.5-3.5
		C1.2,58.2,0,55.3,0,52V12c0-3.3,1.2-6.2,3.5-8.5C5.8,1.2,8.7,0,12,0h40C55.3,0,58.2,1.2,60.5,3.5z M41,25.4h-6v-3.2
		c0-1,0.1-1.7,0.4-2.1c0.3-0.4,1-0.6,2.2-0.6h3.2v-6.6h-5.2c-3,0-5,0.7-6.1,2.2c-1.1,1.5-1.6,3.6-1.6,6.6v3.9H23V32h4.9v19.2H35V32
		h5.2L41,25.4z"/>
</g>
</svg>
