<?xml version="1.0" encoding="utf-8"?>
<!-- Generator: Adobe Illustrator 22.1.0, SVG Export Plug-In . SVG Version: 6.00 Build 0)  -->
<svg version="1.1" id="Layer_1" xmlns="http://www.w3.org/2000/svg" xmlns:xlink="http://www.w3.org/1999/xlink" x="0px" y="0px"
	 width="16px" height="16px" viewBox="0 0 16 16" style="enable-background:new 0 0 16 16;" xml:space="preserve">
<style type="text/css">
	.st0{clip-path:url(#SVGID_2_);fill:#FFFFFF;}
</style>
<g>
	<defs>
		<rect id="SVGID_1_" x="1" width="14" height="16"/>
	</defs>
	<clipPath id="SVGID_2_">
		<use xlink:href="#SVGID_1_"  style="overflow:visible;"/>
	</clipPath>
	<path class="st0" d="M9,11c0-0.3-0.1-0.5-0.3-0.7C8.5,10.1,8.3,10,8,10s-0.5,0.1-0.7,0.3C7.1,10.5,7,10.7,7,11
		c0,0.3,0.1,0.5,0.3,0.7C7.5,11.9,7.7,12,8,12s0.5-0.1,0.7-0.3C8.9,11.5,9,11.3,9,11 M8,13c-0.6,0-1-0.2-1.4-0.6C6.2,12,6,11.6,6,11
		c0-0.6,0.2-1,0.6-1.4C7,9.2,7.4,9,8,9c0.6,0,1,0.2,1.4,0.6C9.8,10,10,10.4,10,11c0,0.6-0.2,1-0.6,1.4C9,12.8,8.6,13,8,13 M14,7H2v8
		h12V7z M4,6h8V5.1C12,4,11.6,3,10.8,2.2C10,1.4,9.1,1,8,1S6,1.4,5.2,2.2S4,4,4,5.1V6z M13,5.1V6h1c0.3,0,0.5,0.1,0.7,0.3
		C14.9,6.5,15,6.7,15,7v8c0,0.3-0.1,0.5-0.3,0.7C14.5,15.9,14.3,16,14,16H2c-0.3,0-0.5-0.1-0.7-0.3C1.1,15.5,1,15.3,1,15V7
		c0-0.3,0.1-0.5,0.3-0.7C1.5,6.1,1.7,6,2,6h1V5.1c0-1.4,0.5-2.6,1.5-3.6C5.4,0.5,6.6,0,8,0s2.6,0.5,3.5,1.5C12.5,2.5,13,3.7,13,5.1"
		/>
</g>
</svg>
