<?xml version="1.0" encoding="utf-8"?>
<!-- Generator: Adobe Illustrator 22.1.0, SVG Export Plug-In . SVG Version: 6.00 Build 0)  -->
<svg version="1.1" id="Layer_1" xmlns="http://www.w3.org/2000/svg" xmlns:xlink="http://www.w3.org/1999/xlink" x="0px" y="0px"
	 width="16px" height="16px" viewBox="0 0 16 16" style="enable-background:new 0 0 16 16;" xml:space="preserve">
<style type="text/css">
	.st0{clip-path:url(#SVGID_2_);}
</style>
<g>
	<defs>
		<rect id="SVGID_1_" width="16" height="16"/>
	</defs>
	<clipPath id="SVGID_2_">
		<use xlink:href="#SVGID_1_"  style="overflow:visible;"/>
	</clipPath>
	<path class="st0" d="M6.3,4.1C5.9,4.5,5.6,5,5.3,5.4C5,5.9,4.8,6.2,4.8,6.3c0.1,0.5,0.6,1.2,1.5,2.4s2.1,2,3.4,2.7
		c0.5-0.1,1.3-0.6,2.3-1.5c0.2-0.1,0.3-0.1,0.5-0.1c0.5,0.1,0.9,0.3,1.3,0.5c0.4,0.2,0.7,0.4,1,0.6c0.2,0.2,0.5,0.4,0.6,0.6
		s0.3,0.4,0.4,0.5c0.1,0.1,0.1,0.2,0.1,0.2c0,0.1,0.1,0.2,0.1,0.3c-0.1,0.5-0.2,1-0.4,1.4s-0.4,0.7-0.5,1c-0.2,0.2-0.4,0.4-0.6,0.6
		c-0.2,0.2-0.4,0.3-0.5,0.4c-0.1,0.1-0.2,0.1-0.2,0.1c-0.1,0-0.1,0.1-0.2,0.1c-0.1,0-0.1,0-0.2,0c-0.1,0-0.2-0.1-0.4-0.1
		c-0.5-0.1-1-0.3-1.3-0.4c-0.4-0.1-0.9-0.3-1.7-0.7c-0.8-0.3-1.4-0.7-2-1.1c-0.6-0.4-1.3-0.9-2.1-1.6C5,11.3,4.3,10.6,3.7,9.7
		C3,8.9,2.4,7.8,1.7,6.6C1.1,5.3,0.5,4,0,2.5c0-0.1,0-0.2,0-0.3C0,2.2,0,2.1,0.1,2c0-0.1,0.1-0.2,0.3-0.4S0.7,1.1,0.9,1
		c0.2-0.2,0.5-0.4,1-0.5C2.3,0.2,2.8,0.1,3.4,0c0.1,0,0.2,0,0.3,0c0.1,0,0.2,0.1,0.3,0.2c0.1,0.1,0.3,0.2,0.6,0.4
		c0.3,0.2,0.6,0.5,0.8,0.7c0.2,0.3,0.5,0.6,0.7,1s0.3,0.8,0.4,1.3C6.5,3.8,6.4,4,6.3,4.1"/>
</g>
</svg>
