<?xml version="1.0" encoding="UTF-8"?>
<svg width="21px" height="21px" viewBox="0 0 21 21" version="1.1" xmlns="http://www.w3.org/2000/svg" xmlns:xlink="http://www.w3.org/1999/xlink">
    <!-- Generator: Sketch 49.3 (51167) - http://www.bohemiancoding.com/sketch -->
    <title>Glyphs/Search</title>
    <desc>Created with Sketch.</desc>
    <defs>
        <path d="M14.5833333,12.8333333 L13.6616667,12.8333333 L13.335,12.5183333 C14.4783333,11.1883333 15.1666667,9.46166667 15.1666667,7.58333333 C15.1666667,3.395 11.7716667,0 7.58333333,0 C3.395,0 0,3.395 0,7.58333333 C0,11.7716667 3.395,15.1666667 7.58333333,15.1666667 C9.46166667,15.1666667 11.1883333,14.4783333 12.5183333,13.335 L12.8333333,13.6616667 L12.8333333,14.5833333 L18.6666667,20.405 L20.405,18.6666667 L14.5833333,12.8333333 Z M7.58333333,12.8333333 C4.67833333,12.8333333 2.33333333,10.4883333 2.33333333,7.58333333 C2.33333333,4.67833333 4.67833333,2.33333333 7.58333333,2.33333333 C10.4883333,2.33333333 12.8333333,4.67833333 12.8333333,7.58333333 C12.8333333,10.4883333 10.4883333,12.8333333 7.58333333,12.8333333 Z" id="path-1"></path>
    </defs>
    <g id="Example" stroke="none" stroke-width="1" fill="none" fill-rule="evenodd">
        <g id="Site/Header" transform="translate(-1388.000000, -29.000000)">
            <g id="ICON/ic_search_24px" transform="translate(1385.000000, 26.000000)">
                <polygon id="Shape" points="0 0 28 0 28 28 0 28"></polygon>
                <g id="COLOR" stroke-width="1" fill-rule="evenodd" transform="translate(3.500000, 3.500000)">
                    <mask id="mask-2" fill="white">
                        <use xlink:href="#path-1"></use>
                    </mask>
                    <use id="Mask" fill="#000000" fill-rule="nonzero" xlink:href="#path-1"></use>
                    <g id="BG/4-White" mask="url(#mask-2)" fill="#FFFFFF">
                        <g transform="translate(-17.500000, -17.500000)" id="BG">
                            <rect x="0" y="0" width="56" height="56"></rect>
                        </g>
                    </g>
                </g>
            </g>
        </g>
    </g>
</svg>