<?xml version="1.0" encoding="utf-8"?>
<!-- Generator: Adobe Illustrator 22.1.0, SVG Export Plug-In . SVG Version: 6.00 Build 0)  -->
<svg version="1.1" id="Layer_1" xmlns="http://www.w3.org/2000/svg" xmlns:xlink="http://www.w3.org/1999/xlink" x="0px" y="0px"
	 width="21px" height="21px" viewBox="0 0 21 21" style="enable-background:new 0 0 21 21;" xml:space="preserve">
<style type="text/css">
	.st0{fill:none;}
	.st1{filter:url(#Adobe_OpacityMaskFilter);}
	.st2{fill:#FFFFFF;}
	.st3{mask:url(#mask-2_1_);}
</style>
<title>Glyphs/Search</title>
<desc>Created with Sketch.</desc>
<g id="Example">
	<g id="Site_x2F_Header" transform="translate(-1388.000000, -29.000000)">
		<g id="ICON_x2F_ic_x5F_search_x5F_24px" transform="translate(1385.000000, 26.000000)">
			<polygon id="Shape" class="st0" points="27.3,27.7 -0.7,27.7 -0.7,-0.3 27.3,-0.3 			"/>
			<g id="COLOR" transform="translate(3.500000, 3.500000)">
				<g id="Mask">
					<path id="path-1_1_" d="M-0.1,18.4l1.7,1.7l5.8-5.8v-0.9L7.8,13c1.3,1.1,3.1,1.8,4.9,1.8c4.2,0,7.6-3.4,7.6-7.6
						c0-4.2-3.4-7.6-7.6-7.6S5.1,3.1,5.1,7.3c0,1.9,0.7,3.6,1.8,4.9l-0.3,0.3H5.7L-0.1,18.4z M7.5,7.3C7.5,4.4,9.8,2,12.7,2
						S18,4.4,18,7.3s-2.3,5.2-5.2,5.2S7.5,10.2,7.5,7.3z"/>
				</g>
				<defs>
					<filter id="Adobe_OpacityMaskFilter" filterUnits="userSpaceOnUse" x="-18.2" y="-17.8" width="56" height="56">
						<feColorMatrix  type="matrix" values="1 0 0 0 0  0 1 0 0 0  0 0 1 0 0  0 0 0 1 0"/>
					</filter>
				</defs>
				<mask maskUnits="userSpaceOnUse" x="-18.2" y="-17.8" width="56" height="56" id="mask-2_1_">
					<g class="st1">
						<path id="path-1_2_" class="st2" d="M-0.1,18.4l1.7,1.7l5.8-5.8v-0.9L7.8,13c1.3,1.1,3.1,1.8,4.9,1.8c4.2,0,7.6-3.4,7.6-7.6
							c0-4.2-3.4-7.6-7.6-7.6S5.1,3.1,5.1,7.3c0,1.9,0.7,3.6,1.8,4.9l-0.3,0.3H5.7L-0.1,18.4z M7.5,7.3C7.5,4.4,9.8,2,12.7,2
							S18,4.4,18,7.3s-2.3,5.2-5.2,5.2S7.5,10.2,7.5,7.3z"/>
					</g>
				</mask>
				<g id="BG_x2F_4-White" class="st3">
					<g id="BG" transform="translate(-17.500000, -17.500000)">
						<rect x="-0.7" y="-0.3" class="st2" width="56" height="56"/>
					</g>
				</g>
			</g>
		</g>
	</g>
</g>
</svg>
